<?xml version="1.0" encoding="UTF-8" standalone="no"?>
<svg
   width="525pt"
   height="525pt"
   version="1.1"
   viewBox="0 0 525 525"
   id="svg194"
   sodipodi:docname="noun-redirect-4490258.svg"
   inkscape:version="1.2.2 (b0a8486541, 2022-12-01)"
   xmlns:inkscape="http://www.inkscape.org/namespaces/inkscape"
   xmlns:sodipodi="http://sodipodi.sourceforge.net/DTD/sodipodi-0.dtd"
   xmlns="http://www.w3.org/2000/svg"
   xmlns:svg="http://www.w3.org/2000/svg">
  <defs
     id="defs198" />
  <sodipodi:namedview
     id="namedview196"
     pagecolor="#ffffff"
     bordercolor="#666666"
     borderopacity="1.0"
     inkscape:showpageshadow="2"
     inkscape:pageopacity="0.0"
     inkscape:pagecheckerboard="0"
     inkscape:deskcolor="#d1d1d1"
     inkscape:document-units="pt"
     showgrid="false"
     inkscape:zoom="0.90857143"
     inkscape:cx="334.59119"
     inkscape:cy="355.50314"
     inkscape:window-width="1918"
     inkscape:window-height="1057"
     inkscape:window-x="1920"
     inkscape:window-y="21"
     inkscape:window-maximized="1"
     inkscape:current-layer="svg194" />
  <g
     id="g192"
     transform="translate(-87.498,-17.5)"
     style="fill:#2e3436;fill-opacity:1">
    <path
       d="m 336.52,268.27 c -8.2578,-3.8633 -17.477,-5.1797 -26.488,-3.7734 -9.0078,1.4023 -17.395,5.457 -24.086,11.648 l -21,19.602 c -8.9766,8.2969 -14.289,19.824 -14.758,32.039 -0.46875,12.219 3.9414,24.117 12.258,33.078 8.3203,8.9609 19.859,14.242 32.074,14.684 h 1.75 c 11.664,-0.0117 22.898,-4.3789 31.5,-12.25 l 20.824,-19.426 h 0.004 c 9.0781,-8.2852 14.387,-19.914 14.699,-32.199 0.26562,-5.9648 -0.6875,-11.918 -2.8008,-17.5 5.5,2.5391 11.445,3.9648 17.5,4.1992 h 1.75 c 11.625,0.0664 22.832,-4.3164 31.324,-12.25 l 20.824,-19.426 c 8.9375,-8.3555 14.211,-19.906 14.668,-32.133 0.46094,-12.227 -3.9297,-24.137 -12.215,-33.141 -8.1797,-9.125 -19.621,-14.66 -31.852,-15.402 -12.258,-0.54297 -24.207,3.9453 -33.074,12.426 l -21,19.426 c -6.7188,6.1875 -11.426,14.25 -13.516,23.141 -2.0898,8.8867 -1.4648,18.203 1.7891,26.734 z m -11.727,49.875 -20.824,19.426 h 0.004 c -2.2031,1.9883 -5.0859,3.0547 -8.0508,2.9766 -2.9414,-0.0586 -5.7266,-1.3242 -7.6992,-3.5 -2.0586,-2.1602 -3.1328,-5.0742 -2.9766,-8.0508 0.0781,-2.9336 1.3398,-5.7109 3.5,-7.6992 l 21,-19.426 h 0.875 c 0.0703,4.0234 1.6328,7.8789 4.3789,10.82 2.7461,2.9414 6.4883,4.7578 10.496,5.1055 0,0 -0.35156,0.17578 -0.69922,0.34766 z m 47.773,-74.727 21,-19.426 0.004,0.004 c 2.043,-1.9102 4.7305,-2.9727 7.5273,-2.9766 2.9102,0.16797 5.6562,1.418 7.6992,3.5 1.9141,2.2461 2.9688,5.1016 2.9727,8.0508 -0.12109,2.9609 -1.4492,5.7422 -3.6719,7.6992 l -20.824,19.426 h -0.87891 c -0.25,-3.9922 -1.7812,-7.8008 -4.375,-10.848 -2.8164,-2.8438 -6.5195,-4.6367 -10.5,-5.0781 z"
       id="path182"
       style="fill:#2e3436;fill-opacity:1" />
    <path
       d="m 553.35,17.5 h -196.7 c -15.672,0.04687 -30.691,6.293 -41.773,17.375 -11.082,11.082 -17.328,26.102 -17.375,41.773 v 126.18 l -24.676,24.676 h -126.18 c -15.672,0.0469 -30.691,6.293 -41.773,17.375 -11.082,11.082 -17.328,26.102 -17.375,41.773 v 196.7 c 0.04687,15.672 6.293,30.691 17.375,41.773 11.082,11.082 26.102,17.328 41.773,17.375 h 196.7 c 15.672,-0.0469 30.691,-6.293 41.773,-17.375 11.082,-11.082 17.328,-26.102 17.375,-41.773 v -126.18 l 24.676,-24.676 h 126.18 c 15.672,-0.0469 30.691,-6.293 41.773,-17.375 11.082,-11.082 17.328,-26.102 17.375,-41.773 V 76.648 C 612.45113,60.976 606.205,45.957 595.123,34.875 584.041,23.793 569.021,17.547 553.35,17.5 Z m 24.148,255.85 c 0,6.4023 -2.543,12.547 -7.0742,17.074 -4.5273,4.5312 -10.672,7.0742 -17.074,7.0742 h -133.35 c -4.6523,-0.0273 -9.1211,1.8008 -12.426,5.0742 l -35,35 c -3.2734,3.3047 -5.1016,7.7734 -5.0742,12.426 v 133.35 c 0,6.4023 -2.543,12.547 -7.0742,17.074 -4.5273,4.5312 -10.672,7.0742 -17.074,7.0742 h -196.7 c -6.4023,0 -12.547,-2.543 -17.074,-7.0742 -4.5312,-4.5273 -7.0742,-10.672 -7.0742,-17.074 v -150.85 h 87.5 c 6.2539,0 12.031,-3.3359 15.156,-8.75 3.125,-5.4141 3.125,-12.086 0,-17.5 -3.125,-5.414 -8.9023,-8.75 -15.156,-8.75 h -87.5 v -10.852 c 0,-6.4023 2.543,-12.547 7.0742,-17.074 4.5273,-4.5312 10.672,-7.0742 17.074,-7.0742 h 133.35 c 4.6523,0.0273 9.1211,-1.8008 12.426,-5.0742 l 35,-35 c 3.2734,-3.3047 5.1016,-7.7734 5.0742,-12.426 v -87.5 h 245 z m 0,-185.85 h -245 V 76.648 c 0,-6.4023 2.543,-12.547 7.0742,-17.074 4.5273,-4.5312 10.672,-7.0742 17.074,-7.0742 h 196.7 c 6.4023,0 12.547,2.543 17.074,7.0742 4.5312,4.5273 7.0742,10.672 7.0742,17.074 z"
       id="path184"
       style="fill:#2e3436;fill-opacity:1" />
    <path
       d="m 122.5,198.27 c 4.6406,0 9.0938,-1.8438 12.375,-5.125 3.2812,-3.2812 5.125,-7.7305 5.125,-12.375 0.0469,-6.1562 2.5117,-12.051 6.8672,-16.406 4.3555,-4.3555 10.25,-6.8203 16.406,-6.8672 h 50.402 l -1.5742,1.5742 c -3.0391,3.3672 -4.6523,7.7773 -4.5,12.309 0.15234,4.5312 2.0547,8.8281 5.3086,11.98 3.2539,3.1562 7.6055,4.9258 12.141,4.9375 4.9102,0.0312 9.6094,-2 12.949,-5.6016 l 14.875,-16.102 v 0.004 c 6.457,-7.2188 10.027,-16.566 10.027,-26.25 0,-9.6875 -3.5703,-19.031 -10.027,-26.25 l -14.875,-16.277004 c -4.2188,-4.625 -10.59,-6.6484 -16.703,-5.3086 -6.1172,1.3438 -11.055,5.8438 -12.953,11.812004 -1.8945,5.9688 -0.46484,12.496 3.7578,17.121 l 1.0469,1.0508 h -49.875 c -15.441,0.0469 -30.234,6.1992 -41.152,17.121 -10.922,10.918 -17.074,25.711 -17.121,41.152 0,4.6445 1.8438,9.0938 5.125,12.375 3.2812,3.2812 7.7344,5.125 12.375,5.125 z"
       id="path186"
       style="fill:#2e3436;fill-opacity:1" />
    <path
       d="m 519.4,377.12 c -7.3125,-6.3867 -16.742,-9.8203 -26.453,-9.625 -9.707,0.19531 -18.992,4 -26.047,10.676 l -15.926,15.227 0.004,-0.004 c -3.3633,3.2422 -5.293,7.6953 -5.3555,12.363 -0.0625,4.6719 1.7422,9.1719 5.0156,12.504 3.2734,3.332 7.7422,5.2148 12.414,5.2344 4.5039,-0.0195 8.832,-1.7734 12.074,-4.8984 l 1.2266,-1.0508 1.0508,49.523 h -0.004 c 0.0977,6.1016 -2.1875,12.004 -6.3711,16.445 -4.1797,4.4453 -9.9297,7.082 -16.027,7.3555 -6.2539,0 -12.031,3.3359 -15.156,8.75 -3.125,5.4141 -3.125,12.086 0,17.5 3.125,5.414 8.9023,8.75 15.156,8.75 15.473,-0.36719 30.168,-6.8555 40.863,-18.043 10.695,-11.188 16.516,-26.16 16.188,-41.633 l -1.0508,-49.352 1.3984,1.0508 c 3.4453,3.3086 8.0898,5.0664 12.859,4.8633 4.7695,-0.19922 9.25,-2.3398 12.402,-5.9219 3.1523,-3.582 4.707,-8.3008 4.2969,-13.055 -0.40625,-4.7578 -2.7383,-9.1406 -6.457,-12.137 z"
       id="path188"
       style="fill:#2e3436;fill-opacity:1" />
    <path
       d="m 478.45,215.43 c 6.5039,9.6758 17.395,15.477 29.051,15.477 11.656,0 22.547,-5.8008 29.051,-15.477 l 20.477,-30.801 h -0.004 c 3.0898,-3.8359 4.4219,-8.793 3.668,-13.656 -0.75391,-4.8672 -3.5234,-9.1914 -7.6289,-11.91 -4.1055,-2.7186 -9.1641,-3.582 -13.938,-2.3828 -4.7734,1.2031 -8.8242,4.3594 -11.148,8.6992 l -20.477,30.625 -2.9766,-3.5 c -3.6797,-4.5703 -9.4023,-6.9883 -15.246,-6.4453 -5.8398,0.53906 -11.02,3.9727 -13.797,9.1406 -2.7773,5.168 -2.7773,11.387 -0.004,16.555 z"
       id="path190"
       style="fill:#2e3436;fill-opacity:1" />
  </g>
</svg>
